<svg id="cnamgs-card" width="1050" height="650" viewBox="0 0 1050 650" xmlns="http://www.w3.org/2000/svg">
  <defs>
    <clipPath id="clip-photo">
      <ellipse cx="847" cy="447" rx="130" ry="160"/>
    </clipPath>
  </defs>

  <!-- fond beige clair -->
  <rect x="0" y="0" width="1050" height="650" rx="28" fill="#e9f2e9"/>
  
  <!-- bande verte horizontale -->
  <rect id="sepTop" x="0" y="165" width="1050" height="8" fill="#2aa84a"/>

  <!-- logos -->
  <image id="img-coat-of-arms" x="60" y="34" width="120" height="120" href="/emblem_gabon.png" preserveAspectRatio="xMidYMid meet"/>
  <image id="img-cnamgs-logo" x="610" y="45" width="400" height="110" href="/cnamgs_logo.png" preserveAspectRatio="xMidYMid meet"/>

  <!-- titres en haut gauche -->
  <text id="txt-republique" x="190" y="90" style="font:700 36px Arial;fill:#111">RÉPUBLIQUE</text>
  <text id="txt-gabonaise" x="190" y="130" style="font:700 36px Arial;fill:#111">GABONAISE</text>
  
  <!-- titres centrés -->
  <text id="txt-secteur" x="700" y="210" text-anchor="middle" style="font:700 34px Arial;fill:#111">Secteur Privé</text>
  <text id="txt-carte" x="700" y="252" text-anchor="middle" style="font:700 34px Arial;fill:#111">Carte d'Assurance Maladie</text>

  <!-- puce SIM dorée -->
  <g id="chip" transform="translate(121,235)">
    <rect x="0" y="0" width="162" height="125" rx="18" ry="18" fill="#efd389" stroke="#1a1a1a" stroke-width="1.5"/>
    <rect x="18" y="18" width="126" height="89" rx="10" ry="10" fill="none" stroke="#2a2821" stroke-width="1.5"/>
    <rect x="64" y="34" width="34" height="58" rx="6" ry="6" fill="none" stroke="#2a2821" stroke-width="1.5"/>
    <g stroke="#2a2821" stroke-width="1.3" fill="none">
      <path d="M81,0 v34"/><path d="M81,92 v33"/><path d="M0,62.5 h18"/><path d="M144,62.5 h18"/>
      <path d="M64,34 h-28 a10,10 0 0 0 -10,10 v18"/>
      <path d="M98,34 h28 a10,10 0 0 1 10,10 v18"/>
      <path d="M64,92 h-28 a10,10 0 0 1 -10,-10 v-18"/>
      <path d="M98,92 h28 a10,10 0 0 0 10,-10 v-18"/>
    </g>
  </g>

  <!-- zone photo elliptique -->
  <ellipse id="photo-placeholder" cx="847" cy="447" rx="130" ry="160" fill="#d9d9d9"/>

  <!-- libellés des champs -->
  <text id="label-nom" x="62" y="410" style="font:400 26px Arial;fill:#666">Nom</text>
  <text id="label-prenoms" x="62" y="492" style="font:400 26px Arial;fill:#666">Prénoms</text>
  <text id="label-dob" x="62" y="574" style="font:400 26px Arial;fill:#666">Date de naissance</text>
  <text id="label-sex" x="511" y="574" style="font:400 26px Arial;fill:#666">Sexe</text>

  <!-- CHAMPS dynamiques -->
  <text id="field-card-number" x="485" y="300" text-anchor="start" style="font:700 32px 'Courier New',monospace;fill:#111"></text>
  <text id="field-name" x="99" y="467" style="font:700 32px Arial;fill:#000"></text>
  <text id="field-given-names" x="99" y="549" style="font:700 32px Arial;fill:#000"></text>
  <text id="field-birthdate" x="99" y="631" style="font:700 32px Arial;fill:#000"></text>
  <text id="field-sex" x="548" y="569" style="font:700 32px Arial;fill:#000"></text>
</svg>